<?xml version="1.0" encoding="UTF-8"?>
<svg xmlns="http://www.w3.org/2000/svg"
     xmlns:xlink="http://www.w3.org/1999/xlink"
     xmlns:gadfly="http://www.gadflyjl.org/ns"
     version="1.2"
     width="71.12mm" height="50.8mm" viewBox="0 0 71.12 50.8"
     stroke="none"
     fill="#000000"
     stroke-width="0.3"
     font-size="3.88"
>
<defs>
  <marker id="arrow" markerWidth="15" markerHeight="7" refX="5" refY="3.5" orient="auto" markerUnits="strokeWidth">
    <path d="M0,0 L15,3.5 L0,7 z" stroke="context-stroke" fill="context-stroke"/>
  </marker>
</defs>
<g stroke="#000000" stroke-opacity="0.000" fill="#FFFFFF" id="img-deb2b163-1">
  <g transform="translate(35.56,25.4)">
    <path d="M-35.56,-25.4 L35.56,-25.4 35.56,25.4 -35.56,25.4  z" class="primitive"/>
  </g>
</g>
<g class="plotroot xscalable yscalable" id="img-deb2b163-2">
  <g font-size="3.88" font-family="'PT Sans','Helvetica Neue','Helvetica',sans-serif" fill="#564A55" stroke="#000000" stroke-opacity="0.000" id="img-deb2b163-3">
    <g transform="translate(42.97,39.98)">
      <g class="primitive">
        <text text-anchor="middle" dy="0.6em">difference</text>
      </g>
    </g>
  </g>
  <g class="guide xlabels" font-size="3.53" font-family="'PT Sans Caption','Helvetica Neue','Helvetica',sans-serif" fill="#6C606B" id="img-deb2b163-4">
    <g transform="translate(22.63,33.16)">
      <g class="primitive">
        <text text-anchor="middle" dy="0.6em">0</text>
      </g>
    </g>
    <g transform="translate(30.77,33.16)">
      <g class="primitive">
        <text text-anchor="middle" dy="0.6em">5</text>
      </g>
    </g>
    <g transform="translate(38.9,33.16)">
      <g class="primitive">
        <text text-anchor="middle" dy="0.6em">10</text>
      </g>
    </g>
    <g transform="translate(47.04,33.16)">
      <g class="primitive">
        <text text-anchor="middle" dy="0.6em">15</text>
      </g>
    </g>
    <g transform="translate(55.17,33.16)">
      <g class="primitive">
        <text text-anchor="middle" dy="0.6em">20</text>
      </g>
    </g>
    <g transform="translate(63.31,33.16)">
      <g class="primitive">
        <text text-anchor="middle" dy="0.6em">25</text>
      </g>
    </g>
  </g>
  <g clip-path="url(#img-deb2b163-5)">
    <g id="img-deb2b163-6">
      <g pointer-events="visible" stroke-width="0.3" fill="#000000" fill-opacity="0.000" stroke="#000000" stroke-opacity="0.000" class="guide background" id="img-deb2b163-7">
        <g transform="translate(42.97,18.58)" id="img-deb2b163-8">
          <path d="M-23.15,-13.58 L23.15,-13.58 23.15,13.58 -23.15,13.58  z" class="primitive"/>
        </g>
      </g>
      <g class="guide ygridlines xfixed" stroke-dasharray="0.5,0.5" stroke-width="0.2" stroke="#D0D0E0" id="img-deb2b163-9">
        <g transform="translate(42.97,30.16)" id="img-deb2b163-10">
          <path fill="none" d="M-23.15,0 L23.15,0 " class="primitive"/>
        </g>
        <g transform="translate(42.97,18.58)" id="img-deb2b163-11">
          <path fill="none" d="M-23.15,0 L23.15,0 " class="primitive"/>
        </g>
        <g transform="translate(42.97,7)" id="img-deb2b163-12">
          <path fill="none" d="M-23.15,0 L23.15,0 " class="primitive"/>
        </g>
      </g>
      <g class="guide xgridlines yfixed" stroke-dasharray="0.5,0.5" stroke-width="0.2" stroke="#D0D0E0" id="img-deb2b163-13">
        <g transform="translate(22.63,18.58)" id="img-deb2b163-14">
          <path fill="none" d="M0,-13.58 L0,13.58 " class="primitive"/>
        </g>
        <g transform="translate(30.77,18.58)" id="img-deb2b163-15">
          <path fill="none" d="M0,-13.58 L0,13.58 " class="primitive"/>
        </g>
        <g transform="translate(38.9,18.58)" id="img-deb2b163-16">
          <path fill="none" d="M0,-13.58 L0,13.58 " class="primitive"/>
        </g>
        <g transform="translate(47.04,18.58)" id="img-deb2b163-17">
          <path fill="none" d="M0,-13.58 L0,13.58 " class="primitive"/>
        </g>
        <g transform="translate(55.17,18.58)" id="img-deb2b163-18">
          <path fill="none" d="M0,-13.58 L0,13.58 " class="primitive"/>
        </g>
        <g transform="translate(63.31,18.58)" id="img-deb2b163-19">
          <path fill="none" d="M0,-13.58 L0,13.58 " class="primitive"/>
        </g>
      </g>
      <g class="plotpanel" id="img-deb2b163-20">
        <metadata>
          <boundingbox value="19.819444444444443mm 5.0mm 46.30055555555555mm 27.15555555555555mm"/>
          <unitbox value="-1.729298275567697 0.21727447216890597 28.458596551135397 -0.23454894433781193"/>
        </metadata>
        <g shape-rendering="crispEdges" stroke-width="0.3" id="img-deb2b163-21">
          <g stroke="#000000" stroke-opacity="0.000" class="geometry" id="img-deb2b163-22">
            <g transform="translate(63.71,30.16)" id="img-deb2b163-23" fill="#440154">
              <path d="M-0.28,-0 L0.28,-0 0.28,0 -0.28,0  z" class="primitive"/>
            </g>
            <g transform="translate(62.09,30.16)" id="img-deb2b163-24" fill="#440154">
              <path d="M-0.28,-0 L0.28,-0 0.28,0 -0.28,0  z" class="primitive"/>
            </g>
            <g transform="translate(60.46,30.16)" id="img-deb2b163-25" fill="#440154">
              <path d="M-0.28,-0 L0.28,-0 0.28,0 -0.28,0  z" class="primitive"/>
            </g>
            <g transform="translate(58.83,30.16)" id="img-deb2b163-26" fill="#440154">
              <path d="M-0.28,-0 L0.28,-0 0.28,0 -0.28,0  z" class="primitive"/>
            </g>
            <g transform="translate(57.21,30.16)" id="img-deb2b163-27" fill="#440154">
              <path d="M-0.28,-0 L0.28,-0 0.28,0 -0.28,0  z" class="primitive"/>
            </g>
            <g transform="translate(55.58,30.16)" id="img-deb2b163-28" fill="#440154">
              <path d="M-0.28,-0 L0.28,-0 0.28,0 -0.28,0  z" class="primitive"/>
            </g>
            <g transform="translate(53.95,30.16)" id="img-deb2b163-29" fill="#440154">
              <path d="M-0.28,-0 L0.28,-0 0.28,0 -0.28,0  z" class="primitive"/>
            </g>
            <g transform="translate(52.32,30.16)" id="img-deb2b163-30" fill="#440154">
              <path d="M-0.28,-0 L0.28,-0 0.28,0 -0.28,0  z" class="primitive"/>
            </g>
            <g transform="translate(50.7,30.16)" id="img-deb2b163-31" fill="#440154">
              <path d="M-0.28,-0 L0.28,-0 0.28,0 -0.28,0  z" class="primitive"/>
            </g>
            <g transform="translate(49.07,30.16)" id="img-deb2b163-32" fill="#440154">
              <path d="M-0.28,-0 L0.28,-0 0.28,0 -0.28,0  z" class="primitive"/>
            </g>
            <g transform="translate(47.44,30.16)" id="img-deb2b163-33" fill="#440154">
              <path d="M-0.28,-0 L0.28,-0 0.28,0 -0.28,0  z" class="primitive"/>
            </g>
            <g transform="translate(45.82,30.15)" id="img-deb2b163-34" fill="#440154">
              <path d="M-0.28,-0 L0.28,-0 0.28,0 -0.28,0  z" class="primitive"/>
            </g>
            <g transform="translate(44.19,30.15)" id="img-deb2b163-35" fill="#440154">
              <path d="M-0.28,-0.01 L0.28,-0.01 0.28,0.01 -0.28,0.01  z" class="primitive"/>
            </g>
            <g transform="translate(42.56,30.11)" id="img-deb2b163-36" fill="#440154">
              <path d="M-0.28,-0.05 L0.28,-0.05 0.28,0.05 -0.28,0.05  z" class="primitive"/>
            </g>
            <g transform="translate(40.94,29.91)" id="img-deb2b163-37" fill="#440154">
              <path d="M-0.28,-0.25 L0.28,-0.25 0.28,0.25 -0.28,0.25  z" class="primitive"/>
            </g>
            <g transform="translate(39.31,29.44)" id="img-deb2b163-38" fill="#440154">
              <path d="M-0.28,-0.72 L0.28,-0.72 0.28,0.72 -0.28,0.72  z" class="primitive"/>
            </g>
            <g transform="translate(37.68,28.43)" id="img-deb2b163-39" fill="#440154">
              <path d="M-0.28,-1.72 L0.28,-1.72 0.28,1.72 -0.28,1.72  z" class="primitive"/>
            </g>
            <g transform="translate(36.06,26.61)" id="img-deb2b163-40" fill="#440154">
              <path d="M-0.28,-3.54 L0.28,-3.54 0.28,3.54 -0.28,3.54  z" class="primitive"/>
            </g>
            <g transform="translate(34.43,23.85)" id="img-deb2b163-41" fill="#440154">
              <path d="M-0.28,-6.31 L0.28,-6.31 0.28,6.31 -0.28,6.31  z" class="primitive"/>
            </g>
            <g transform="translate(32.8,20.73)" id="img-deb2b163-42" fill="#440154">
              <path d="M-0.28,-9.43 L0.28,-9.43 0.28,9.43 -0.28,9.43  z" class="primitive"/>
            </g>
            <g transform="translate(31.17,18.93)" id="img-deb2b163-43" fill="#440154">
              <path d="M-0.28,-11.23 L0.28,-11.23 0.28,11.23 -0.28,11.23  z" class="primitive"/>
            </g>
            <g transform="translate(29.55,19.27)" id="img-deb2b163-44" fill="#440154">
              <path d="M-0.28,-10.88 L0.28,-10.88 0.28,10.88 -0.28,10.88  z" class="primitive"/>
            </g>
            <g transform="translate(27.92,22.08)" id="img-deb2b163-45" fill="#440154">
              <path d="M-0.28,-8.08 L0.28,-8.08 0.28,8.08 -0.28,8.08  z" class="primitive"/>
            </g>
            <g transform="translate(26.29,26.11)" id="img-deb2b163-46" fill="#440154">
              <path d="M-0.28,-4.05 L0.28,-4.05 0.28,4.05 -0.28,4.05  z" class="primitive"/>
            </g>
            <g transform="translate(24.67,28.73)" id="img-deb2b163-47" fill="#440154">
              <path d="M-0.28,-1.43 L0.28,-1.43 0.28,1.43 -0.28,1.43  z" class="primitive"/>
            </g>
            <g transform="translate(23.04,29.96)" id="img-deb2b163-48" fill="#440154">
              <path d="M-0.28,-0.2 L0.28,-0.2 0.28,0.2 -0.28,0.2  z" class="primitive"/>
            </g>
            <g transform="translate(62.9,30.16)" id="img-deb2b163-49" fill="#6CCE59">
              <path d="M-0.28,-0 L0.28,-0 0.28,0 -0.28,0  z" class="primitive"/>
            </g>
            <g transform="translate(61.27,30.16)" id="img-deb2b163-50" fill="#6CCE59">
              <path d="M-0.28,-0 L0.28,-0 0.28,0 -0.28,0  z" class="primitive"/>
            </g>
            <g transform="translate(59.65,30.16)" id="img-deb2b163-51" fill="#6CCE59">
              <path d="M-0.28,-0 L0.28,-0 0.28,0 -0.28,0  z" class="primitive"/>
            </g>
            <g transform="translate(58.02,30.15)" id="img-deb2b163-52" fill="#6CCE59">
              <path d="M-0.28,-0 L0.28,-0 0.28,0 -0.28,0  z" class="primitive"/>
            </g>
            <g transform="translate(56.39,30.14)" id="img-deb2b163-53" fill="#6CCE59">
              <path d="M-0.28,-0.02 L0.28,-0.02 0.28,0.02 -0.28,0.02  z" class="primitive"/>
            </g>
            <g transform="translate(54.77,30.09)" id="img-deb2b163-54" fill="#6CCE59">
              <path d="M-0.28,-0.06 L0.28,-0.06 0.28,0.06 -0.28,0.06  z" class="primitive"/>
            </g>
            <g transform="translate(53.14,29.94)" id="img-deb2b163-55" fill="#6CCE59">
              <path d="M-0.28,-0.21 L0.28,-0.21 0.28,0.21 -0.28,0.21  z" class="primitive"/>
            </g>
            <g transform="translate(51.51,29.5)" id="img-deb2b163-56" fill="#6CCE59">
              <path d="M-0.28,-0.65 L0.28,-0.65 0.28,0.65 -0.28,0.65  z" class="primitive"/>
            </g>
            <g transform="translate(49.88,28.86)" id="img-deb2b163-57" fill="#6CCE59">
              <path d="M-0.28,-1.3 L0.28,-1.3 0.28,1.3 -0.28,1.3  z" class="primitive"/>
            </g>
            <g transform="translate(48.26,27.54)" id="img-deb2b163-58" fill="#6CCE59">
              <path d="M-0.28,-2.62 L0.28,-2.62 0.28,2.62 -0.28,2.62  z" class="primitive"/>
            </g>
            <g transform="translate(46.63,25.96)" id="img-deb2b163-59" fill="#6CCE59">
              <path d="M-0.28,-4.2 L0.28,-4.2 0.28,4.2 -0.28,4.2  z" class="primitive"/>
            </g>
            <g transform="translate(45,24.5)" id="img-deb2b163-60" fill="#6CCE59">
              <path d="M-0.28,-5.66 L0.28,-5.66 0.28,5.66 -0.28,5.66  z" class="primitive"/>
            </g>
            <g transform="translate(43.38,23.67)" id="img-deb2b163-61" fill="#6CCE59">
              <path d="M-0.28,-6.49 L0.28,-6.49 0.28,6.49 -0.28,6.49  z" class="primitive"/>
            </g>
            <g transform="translate(41.75,23.63)" id="img-deb2b163-62" fill="#6CCE59">
              <path d="M-0.28,-6.53 L0.28,-6.53 0.28,6.53 -0.28,6.53  z" class="primitive"/>
            </g>
            <g transform="translate(40.12,24.59)" id="img-deb2b163-63" fill="#6CCE59">
              <path d="M-0.28,-5.57 L0.28,-5.57 0.28,5.57 -0.28,5.57  z" class="primitive"/>
            </g>
            <g transform="translate(38.5,26.05)" id="img-deb2b163-64" fill="#6CCE59">
              <path d="M-0.28,-4.11 L0.28,-4.11 0.28,4.11 -0.28,4.11  z" class="primitive"/>
            </g>
            <g transform="translate(36.87,27.59)" id="img-deb2b163-65" fill="#6CCE59">
              <path d="M-0.28,-2.57 L0.28,-2.57 0.28,2.57 -0.28,2.57  z" class="primitive"/>
            </g>
            <g transform="translate(35.24,28.83)" id="img-deb2b163-66" fill="#6CCE59">
              <path d="M-0.28,-1.33 L0.28,-1.33 0.28,1.33 -0.28,1.33  z" class="primitive"/>
            </g>
            <g transform="translate(33.61,29.59)" id="img-deb2b163-67" fill="#6CCE59">
              <path d="M-0.28,-0.57 L0.28,-0.57 0.28,0.57 -0.28,0.57  z" class="primitive"/>
            </g>
            <g transform="translate(31.99,29.93)" id="img-deb2b163-68" fill="#6CCE59">
              <path d="M-0.28,-0.23 L0.28,-0.23 0.28,0.23 -0.28,0.23  z" class="primitive"/>
            </g>
            <g transform="translate(30.36,29.98)" id="img-deb2b163-69" fill="#6CCE59">
              <path d="M-0.28,-0.17 L0.28,-0.17 0.28,0.17 -0.28,0.17  z" class="primitive"/>
            </g>
            <g transform="translate(28.73,29.85)" id="img-deb2b163-70" fill="#6CCE59">
              <path d="M-0.28,-0.31 L0.28,-0.31 0.28,0.31 -0.28,0.31  z" class="primitive"/>
            </g>
            <g transform="translate(27.11,29.15)" id="img-deb2b163-71" fill="#6CCE59">
              <path d="M-0.28,-1.01 L0.28,-1.01 0.28,1.01 -0.28,1.01  z" class="primitive"/>
            </g>
            <g transform="translate(25.48,27.35)" id="img-deb2b163-72" fill="#6CCE59">
              <path d="M-0.28,-2.8 L0.28,-2.8 0.28,2.8 -0.28,2.8  z" class="primitive"/>
            </g>
            <g transform="translate(23.85,24.55)" id="img-deb2b163-73" fill="#6CCE59">
              <path d="M-0.28,-5.6 L0.28,-5.6 0.28,5.6 -0.28,5.6  z" class="primitive"/>
            </g>
            <g transform="translate(22.23,24.27)" id="img-deb2b163-74" fill="#6CCE59">
              <path d="M-0.28,-5.89 L0.28,-5.89 0.28,5.89 -0.28,5.89  z" class="primitive"/>
            </g>
          </g>
        </g>
      </g>
      <g class="guide colorkey" id="img-deb2b163-75">
        <g fill="#4C404B" font-size="3.53" font-family="'PT Sans','Helvetica Neue','Helvetica',sans-serif" id="img-deb2b163-76">
          <g transform="translate(41.55,9.46)" id="img-deb2b163-77">
            <g class="primitive">
              <text dy="0.35em">ordinary</text>
            </g>
          </g>
          <g transform="translate(41.55,13.99)" id="img-deb2b163-78">
            <g class="primitive">
              <text dy="0.35em">preference</text>
            </g>
          </g>
        </g>
        <g stroke-width="0.3" id="img-deb2b163-79">
          <g stroke="#FFFFFF" fill-opacity="1" fill="#6CCE59" id="img-deb2b163-80">
            <g transform="translate(38.29,13.99)" id="img-deb2b163-81">
              <circle cx="0" cy="0" r="0.9" class="primitive"/>
            </g>
          </g>
          <g stroke="#FFFFFF" fill-opacity="1" fill="#440154" id="img-deb2b163-82">
            <g transform="translate(38.29,9.46)" id="img-deb2b163-83">
              <circle cx="0" cy="0" r="0.9" class="primitive"/>
            </g>
          </g>
        </g>
        <g fill="#362A35" font-size="3.88" font-family="'PT Sans','Helvetica Neue','Helvetica',sans-serif" stroke="#000000" stroke-opacity="0.000" id="img-deb2b163-84">
          <g transform="translate(37.02,5.7)" id="img-deb2b163-85">
            <g class="primitive">
              <text dy="-0em"></text>
            </g>
          </g>
        </g>
      </g>
    </g>
  </g>
  <g class="guide ylabels" font-size="3.53" font-family="'PT Sans Caption','Helvetica Neue','Helvetica',sans-serif" fill="#6C606B" id="img-deb2b163-86">
    <g transform="translate(18.82,30.16)" id="img-deb2b163-87">
      <g class="primitive">
        <text text-anchor="end" dy="0.35em">0.0</text>
      </g>
    </g>
    <g transform="translate(18.82,18.58)" id="img-deb2b163-88">
      <g class="primitive">
        <text text-anchor="end" dy="0.35em">0.1</text>
      </g>
    </g>
    <g transform="translate(18.82,7)" id="img-deb2b163-89">
      <g class="primitive">
        <text text-anchor="end" dy="0.35em">0.2</text>
      </g>
    </g>
  </g>
  <g font-size="3.88" font-family="'PT Sans','Helvetica Neue','Helvetica',sans-serif" fill="#564A55" stroke="#000000" stroke-opacity="0.000" id="img-deb2b163-90">
    <g transform="translate(8.76,16.58)" id="img-deb2b163-91">
      <g class="primitive">
        <text text-anchor="middle" dy="0.35em" transform="rotate(-90,0, 2)">edges</text>
      </g>
    </g>
  </g>
</g>
<defs>
  <clipPath id="img-deb2b163-5">
    <path d="M19.82,5 L66.12,5 66.12,32.16 19.82,32.16 " />
  </clipPath>
</defs>
</svg>
